<svg width="20" height="21" viewBox="0 0 20 21" fill="none" xmlns="http://www.w3.org/2000/svg">
<path fill-rule="evenodd" clip-rule="evenodd" d="M2.5 5.49984C2.5 5.0396 2.8731 4.6665 3.33333 4.6665H16.6667C17.1269 4.6665 17.5 5.0396 17.5 5.49984C17.5 5.96007 17.1269 6.33317 16.6667 6.33317H3.33333C2.8731 6.33317 2.5 5.96007 2.5 5.49984Z" fill="#878787"/>
<path fill-rule="evenodd" clip-rule="evenodd" d="M7.5 8.83333C7.5 8.3731 7.8731 8 8.33333 8H16.6667C17.1269 8 17.5 8.3731 17.5 8.83333C17.5 9.29357 17.1269 9.66667 16.6667 9.66667H8.33333C7.8731 9.66667 7.5 9.29357 7.5 8.83333Z" fill="#878787"/>
<path fill-rule="evenodd" clip-rule="evenodd" d="M2.5 12.1668C2.5 11.7066 2.8731 11.3335 3.33333 11.3335H16.6667C17.1269 11.3335 17.5 11.7066 17.5 12.1668C17.5 12.6271 17.1269 13.0002 16.6667 13.0002H3.33333C2.8731 13.0002 2.5 12.6271 2.5 12.1668Z" fill="#878787"/>
<path fill-rule="evenodd" clip-rule="evenodd" d="M7.5 15.4998C7.5 15.0396 7.8731 14.6665 8.33333 14.6665H16.6667C17.1269 14.6665 17.5 15.0396 17.5 15.4998C17.5 15.9601 17.1269 16.3332 16.6667 16.3332H8.33333C7.8731 16.3332 7.5 15.9601 7.5 15.4998Z" fill="#878787"/>
</svg>
